<svg width="69" height="69" viewBox="0 0 69 69" fill="none" xmlns="http://www.w3.org/2000/svg">
<g clip-path="url(#clip0_1401_2297)">
<g clip-path="url(#clip1_1401_2297)">
<path d="M34.5 69C53.5538 69 69 53.5538 69 34.5C69 15.4462 53.5538 0 34.5 0C15.4462 0 0 15.4462 0 34.5C0 53.5538 15.4462 69 34.5 69Z" fill="#F2F4F5"/>
<path d="M34.5 54C45.2696 54 54 45.2696 54 34.5C54 23.7304 45.2696 15 34.5 15C23.7304 15 15 23.7304 15 34.5C15 45.2696 23.7304 54 34.5 54Z" fill="#52C055"/>
<path d="M43.5 33.1339C43.652 33.2217 43.7782 33.3479 43.866 33.4999C43.9538 33.6519 44 33.8244 44 33.9999C44 34.1754 43.9538 34.3479 43.866 34.4999C43.7782 34.6519 43.652 34.7781 43.5 34.8659L36 39.1959C35.848 39.2837 35.6755 39.3299 35.5 39.3299C35.3245 39.3299 35.152 39.2837 35 39.1959C34.848 39.1081 34.7218 38.9819 34.634 38.8299C34.5462 38.6779 34.5 38.5054 34.5 38.3299V29.6699C34.5 29.4944 34.5462 29.3219 34.634 29.1699C34.7218 29.0179 34.848 28.8917 35 28.8039C35.152 28.7161 35.3245 28.6699 35.5 28.6699C35.6755 28.6699 35.848 28.7161 36 28.8039L43.5 33.1339Z" fill="white"/>
<path d="M36 32.0918H28C27.4477 32.0918 27 32.5395 27 33.0918V34.9098C27 35.4621 27.4477 35.9098 28 35.9098H36C36.5523 35.9098 37 35.4621 37 34.9098V33.0918C37 32.5395 36.5523 32.0918 36 32.0918Z" fill="white"/>
</g>
</g>
<defs>
<clipPath id="clip0_1401_2297">
<rect width="69" height="69" fill="white"/>
</clipPath>
<clipPath id="clip1_1401_2297">
<rect width="69" height="69" fill="white"/>
</clipPath>
</defs>
</svg>
