<svg width="64" height="64" viewBox="0 0 64 64" fill="none" xmlns="http://www.w3.org/2000/svg">
<path d="M32.1074 26.7969C32.6327 26.9571 33.1087 27.2526 33.4834 27.6592C33.9214 28.1345 34.1983 28.7351 34.2783 29.376C34.1985 30.0173 33.9216 30.6181 33.4834 31.0938C33.1088 31.5003 32.6326 31.7948 32.1074 31.9551V26.7969Z" stroke="white" stroke-width="0.5"/>
<path d="M53.0361 7.06641C54.071 7.06491 55.0642 7.4743 55.7979 8.2041C56.4855 8.88821 56.8928 9.80159 56.9443 10.7656L56.9502 10.959V31.1104C54.1935 29.7273 51.0115 29.4305 48.04 30.2939C44.9769 31.1841 42.3852 33.2347 40.8105 36.0049C38.8418 36.2365 36.9583 36.9439 35.3242 38.0684C33.6973 39.1879 32.3685 40.6865 31.4492 42.4326H7.65039C6.61887 42.4311 5.62968 42.0205 4.90039 41.291C4.17108 40.5613 3.76076 39.5717 3.75977 38.54V10.959C3.76076 9.92733 4.17108 8.93768 4.90039 8.20801C5.58406 7.5241 6.49581 7.12035 7.45703 7.07129L7.65039 7.06641H53.0361ZM13.3457 21.6104C12.5137 21.6109 11.7162 21.942 11.1279 22.5303C10.5396 23.1186 10.2086 23.9161 10.208 24.748C10.208 25.3687 10.3915 25.9761 10.7363 26.4922C11.0811 27.0081 11.5713 27.41 12.1445 27.6475C12.7179 27.885 13.3493 27.9473 13.958 27.8262C14.5665 27.7051 15.1257 27.4064 15.5645 26.9678C16.0033 26.5289 16.3027 25.9691 16.4238 25.3604C16.5448 24.7519 16.4825 24.1211 16.2451 23.5479C16.0076 22.9745 15.6049 22.4845 15.0889 22.1396C14.6375 21.838 14.1169 21.6591 13.5781 21.6191L13.3457 21.6104ZM47.2979 21.6104C46.4658 21.6109 45.6674 21.9419 45.0791 22.5303C44.491 23.1185 44.1608 23.9162 44.1602 24.748C44.1602 25.3687 44.3437 25.9761 44.6885 26.4922C45.0332 27.0081 45.5235 27.41 46.0967 27.6475C46.6701 27.885 47.3014 27.9473 47.9102 27.8262C48.5187 27.7051 49.0778 27.4064 49.5166 26.9678C49.9555 26.5289 50.2539 25.9691 50.375 25.3604C50.496 24.7518 50.4346 24.1211 50.1973 23.5479C49.9598 22.9745 49.557 22.4845 49.041 22.1396C48.525 21.7949 47.9185 21.6104 47.2979 21.6104ZM37.7822 20.124L37.7812 20.1162C37.6813 18.5528 37.0372 17.0738 35.9609 15.9355C34.9353 14.851 33.5786 14.1415 32.1074 13.915V13.4668C32.1074 13.0027 31.9229 12.5567 31.5947 12.2285C31.2666 11.9006 30.8213 11.7168 30.3574 11.7168C29.8935 11.7169 29.4482 11.9005 29.1201 12.2285C28.7919 12.5567 28.6074 13.0027 28.6074 13.4668V13.915C27.1381 14.1408 25.783 14.8484 24.7578 15.9307C23.6814 17.067 23.0364 18.5445 22.9346 20.1064L22.9336 20.1221L22.9346 20.1387C23.0369 21.7 23.6816 23.1766 24.7578 24.3125C25.783 25.3944 27.1384 26.1014 28.6074 26.3271V31.9766C28.0779 31.8204 27.5978 31.5255 27.2217 31.1162C26.832 30.6921 26.5718 30.1676 26.4678 29.6045L26.4326 29.3613C26.4261 28.9063 26.2431 28.4717 25.9209 28.1494C25.5927 27.8212 25.1477 27.6367 24.6836 27.6367C24.2195 27.6368 23.7744 27.8213 23.4463 28.1494C23.1183 28.4776 22.9336 28.9227 22.9336 29.3867V29.3945L22.9346 29.4023C23.0369 30.9639 23.6815 32.4412 24.7578 33.5771C25.783 34.6591 27.1384 35.3651 28.6074 35.5908V36.04C28.6074 36.5042 28.7919 36.9501 29.1201 37.2783C29.4482 37.6063 29.8935 37.7899 30.3574 37.79C30.8213 37.79 31.2666 37.6062 31.5947 37.2783C31.9229 36.9501 32.1074 36.5042 32.1074 36.04V35.5908C33.5765 35.3648 34.9318 34.6582 35.957 33.5762C37.0332 32.4404 37.6785 30.9636 37.7812 29.4023L37.7822 29.3867L37.7812 29.3701C37.6785 27.8087 37.0333 26.3321 35.957 25.1963C34.9317 24.1143 33.5766 23.4066 32.1074 23.1807V17.5498C32.633 17.7103 33.1086 18.0072 33.4834 18.4141C33.8726 18.8367 34.1362 19.3582 34.2461 19.9189L34.2832 20.1611C34.2906 20.6148 34.4726 21.0487 34.7939 21.3701C35.1221 21.6983 35.5681 21.8828 36.0322 21.8828C36.4962 21.8827 36.9415 21.6982 37.2695 21.3701C37.5976 21.042 37.7821 20.5968 37.7822 20.1328V20.124Z" stroke="white" stroke-width="0.5"/>
<path d="M28.6074 22.7119C28.078 22.5556 27.5978 22.2608 27.2217 21.8516C26.782 21.373 26.5073 20.7666 26.4355 20.1211C26.5072 19.4759 26.7823 18.8701 27.2217 18.3916C27.5979 17.9819 28.0776 17.6847 28.6074 17.5283V22.7119Z" stroke="white" stroke-width="0.5"/>
<path d="M51.4668 33.3105C53.7924 33.3136 56.0225 34.2393 57.667 35.8838C59.3112 37.5282 60.2362 39.7576 60.2393 42.083C60.2392 43.8178 59.7245 45.5136 58.7607 46.9561C57.7969 48.3985 56.427 49.5226 54.8242 50.1865C53.2213 50.8505 51.4575 51.024 49.7559 50.6855C48.0543 50.3471 46.4914 49.5119 45.2646 48.2852C44.0379 47.0584 43.2027 45.4955 42.8643 43.7939C42.5258 42.0923 42.6993 40.3285 43.3633 38.7256C44.0272 37.1228 45.1513 35.7529 46.5938 34.7891C48.0362 33.8253 49.732 33.3106 51.4668 33.3105Z" stroke="white" stroke-width="0.5"/>
<path d="M39.3877 39.9316C39.2604 40.6411 39.1961 41.3607 39.1953 42.082V42.083C39.1977 44.9452 40.1986 47.7172 42.0264 49.9199C43.7625 52.0121 46.1415 53.4636 48.7861 54.0586C47.6725 55.2921 46.2295 56.1869 44.6221 56.6309C42.8807 57.1117 41.0331 57.0418 39.333 56.4307C37.6327 55.8194 36.1626 54.6967 35.126 53.2168C34.0894 51.7369 33.5365 49.9719 33.543 48.165V48.1641C33.538 46.2827 34.1438 44.4499 35.2695 42.9424C36.3118 41.5467 37.7478 40.4996 39.3877 39.9316Z" stroke="white" stroke-width="0.5"/>
<path d="M31.6074 32.582L31.9062 32.5234C32.6536 32.3747 33.3352 31.9921 33.8516 31.4316C34.3678 30.8713 34.693 30.1612 34.7803 29.4043L34.7832 29.376L34.7803 29.3467C34.6921 28.5905 34.3659 27.8818 33.8496 27.3223C33.3333 26.7627 32.653 26.3809 31.9062 26.2324L31.6074 26.1729V32.582ZM28.8115 16.9639C28.0588 17.1064 27.3718 17.4885 26.8535 18.0527C26.3352 18.6171 26.0125 19.3344 25.9346 20.0967L25.9326 20.1221L25.9346 20.1475C26.013 20.9093 26.3354 21.6255 26.8535 22.1895C27.3718 22.7534 28.059 23.1349 28.8115 23.2773L29.1074 23.334V16.9082L28.8115 16.9639ZM34.7812 20.1074L34.7803 20.0928C34.6931 19.3358 34.3677 18.626 33.8516 18.0654C33.3352 17.5047 32.6538 17.1218 31.9062 16.9727L31.6074 16.9131V23.6094L31.8281 23.6357C33.2657 23.8085 34.5978 24.4784 35.5938 25.5293C36.5858 26.5763 37.1816 27.9364 37.2803 29.375C37.1819 30.8142 36.5862 32.1743 35.5938 33.2217C34.5978 34.2728 33.2658 34.9425 31.8281 35.1152L31.6074 35.1416V36.0303C31.6073 36.3616 31.4755 36.6797 31.2412 36.9141C31.0068 37.1483 30.6888 37.2803 30.3574 37.2803C30.026 37.2802 29.708 37.1484 29.4736 36.9141C29.2393 36.6797 29.1075 36.3616 29.1074 36.0303V35.1416L28.8877 35.1152C27.4499 34.9429 26.1172 34.2737 25.1211 33.2227C24.1279 32.1745 23.5309 30.8125 23.4336 29.3721C23.4346 29.0419 23.5663 28.7257 23.7998 28.4922C24.0342 28.2578 24.3521 28.126 24.6836 28.126C25.0151 28.126 25.333 28.2578 25.5674 28.4922C25.8018 28.7266 25.9336 29.0445 25.9336 29.376V29.3887L25.9346 29.4004C26.0104 30.1643 26.3321 30.883 26.8506 31.4492C27.3691 32.0154 28.0572 32.3984 28.8115 32.541L29.1074 32.5977V25.8984L28.8877 25.8721C27.4499 25.6998 26.1172 25.0296 25.1211 23.9785C24.1285 22.931 23.5315 21.5703 23.4336 20.1309C23.5292 18.6899 24.1247 17.3268 25.1172 16.2773C26.1135 15.2238 27.448 14.5526 28.8877 14.3799L29.1074 14.3535V13.4658C29.1074 13.1343 29.2393 12.8164 29.4736 12.582C29.708 12.3477 30.026 12.2159 30.3574 12.2158C30.6889 12.2158 31.0068 12.3477 31.2412 12.582C31.4756 12.8165 31.6074 13.1343 31.6074 13.4658V14.3535L31.8281 14.3799C33.2661 14.5527 34.5987 15.2229 35.5947 16.2744C36.5285 17.2602 37.1116 18.5233 37.2588 19.8682L37.2812 20.1221C37.2812 20.4535 37.1494 20.7715 36.915 21.0059C36.6806 21.2401 36.3626 21.3721 36.0312 21.3721C35.6999 21.372 35.3818 21.2402 35.1475 21.0059C34.9131 20.7715 34.7813 20.4535 34.7812 20.1221V20.1074Z" fill="white" stroke="white" stroke-width="0.5"/>
<path d="M53.0361 4.06641C54.8662 4.06597 56.6219 4.791 57.918 6.08301C59.1331 7.29444 59.8512 8.91172 59.9404 10.6172L59.9502 10.959V33.9482L60.0186 34.0205C61.5247 35.6109 62.5564 37.5907 62.9971 39.7363C63.4377 41.8821 63.2694 44.1087 62.5117 46.1641C61.7541 48.2194 60.4369 50.0218 58.709 51.3682C56.9811 52.7146 54.9116 53.5519 52.7334 53.7842L52.6045 53.7979L52.542 53.9102C51.2702 56.1775 49.2821 57.9588 46.8896 58.9756C44.4971 59.9924 41.8344 60.1873 39.3193 59.5293C36.8046 58.8713 34.5792 57.3978 32.9912 55.3398C31.4033 53.2817 30.5425 50.7547 30.5439 48.1553C30.5453 47.3417 30.6296 46.53 30.7949 45.7334L30.8574 45.4326H7.65039C5.82327 45.4306 4.07109 44.7033 2.7793 43.4111C1.48763 42.119 0.761298 40.3671 0.759766 38.54V10.959C0.761298 9.132 1.48769 7.38001 2.7793 6.08789C3.99039 4.87646 5.60586 4.16143 7.30859 4.0752L7.65039 4.06641H53.0361ZM39.6455 39.3145C37.7363 39.8745 36.0606 41.0396 34.8701 42.6338C33.6798 44.2278 33.0389 46.1649 33.0439 48.1543C33.0472 50.6147 34.0257 52.9742 35.7656 54.7139C37.5056 56.4534 39.8648 57.4318 42.3252 57.4346H42.3271C43.6905 57.4278 45.0358 57.1198 46.2666 56.5332C47.4973 55.9466 48.5835 55.0958 49.4473 54.041L49.7148 53.7139L49.2998 53.6367C47.7549 53.3497 46.283 52.7555 44.9717 51.8896C43.6604 51.0238 42.5358 49.9037 41.665 48.5957C40.7943 47.2877 40.1952 45.8181 39.9023 44.2744C39.6095 42.7306 39.6287 41.1434 39.96 39.6074L40.0488 39.1963L39.6455 39.3145ZM55.0156 33.5166C53.3215 32.8149 51.4576 32.6306 49.6592 32.9883C47.8606 33.346 46.2078 34.2297 44.9111 35.5264C43.6146 36.823 42.7318 38.475 42.374 40.2734C42.0163 42.072 42.1996 43.9366 42.9014 45.6309C43.6031 47.325 44.7917 48.7732 46.3164 49.792C47.7458 50.747 49.4106 51.2841 51.124 51.3477L51.4678 51.3545C53.9258 51.3512 56.2824 50.3728 58.0205 48.6348C59.7584 46.8968 60.7369 44.5408 60.7402 42.083V42.082C60.7402 40.2484 60.1954 38.4563 59.1768 36.9316C58.1579 35.4069 56.7099 34.2184 55.0156 33.5166ZM57.4502 10.957C57.4456 9.79252 56.9795 8.67715 56.1553 7.85449C55.3309 7.03187 54.2144 6.56864 53.0498 6.56641H7.64941C6.48548 6.56809 5.36976 7.03134 4.54688 7.85449C3.724 8.67777 3.26093 9.79401 3.25977 10.958V38.541C3.26098 39.7049 3.72405 40.8213 4.54688 41.6445C5.31829 42.4161 6.3471 42.8714 7.43164 42.9268L7.64941 42.9326H31.7529L31.8223 42.7959C32.7057 41.0652 34.0067 39.582 35.6074 38.4805C37.2081 37.3789 39.0582 36.6941 40.9902 36.4873L41.1191 36.4736L41.1826 36.3594C42.6866 33.6474 45.2018 31.6398 48.1797 30.7744C51.1577 29.9091 54.3569 30.2565 57.0801 31.7402L57.4502 31.9414V10.957Z" fill="white" stroke="white" stroke-width="0.5"/>
<path d="M12.3359 22.3115C12.8178 22.112 13.3478 22.0594 13.8594 22.1611C14.371 22.2629 14.8411 22.514 15.21 22.8828C15.5788 23.2517 15.8308 23.7218 15.9326 24.2334C16.0344 24.7451 15.9819 25.2758 15.7822 25.7578C15.5826 26.2398 15.2443 26.6515 14.8105 26.9414C14.3767 27.2313 13.8665 27.3867 13.3447 27.3867C12.6452 27.3866 11.9741 27.1079 11.4795 26.6133C10.985 26.1186 10.707 25.4475 10.707 24.748C10.7071 24.2266 10.8617 23.7168 11.1514 23.2832C11.4412 22.8494 11.8539 22.5112 12.3359 22.3115Z" fill="white" stroke="white" stroke-width="0.5"/>
<path d="M46.2891 22.3115C46.7709 22.112 47.3009 22.0594 47.8125 22.1611C48.3241 22.2629 48.7942 22.514 49.1631 22.8828C49.532 23.2517 49.7839 23.7218 49.8857 24.2334C49.9875 24.7451 49.935 25.2758 49.7354 25.7578C49.5357 26.2398 49.1974 26.6515 48.7637 26.9414C48.3299 27.2313 47.8196 27.3867 47.2979 27.3867C46.5983 27.3866 45.9273 27.1079 45.4326 26.6133C44.9381 26.1186 44.6602 25.4475 44.6602 24.748C44.6602 24.2266 44.8149 23.7168 45.1045 23.2832C45.3944 22.8494 45.807 22.5112 46.2891 22.3115Z" fill="white" stroke="white" stroke-width="0.5"/>
</svg>
