<svg width="64" height="65" viewBox="0 0 64 65" fill="none" xmlns="http://www.w3.org/2000/svg">
<g clip-path="url(#clip0_1401_1753)">
<g clip-path="url(#clip1_1401_1753)">
<path d="M47.2353 31.2189C56.4943 31.2189 64 38.725 64 47.9844C64 57.2436 56.4943 64.75 47.2353 64.75C37.9765 64.75 30.4705 57.2436 30.4705 47.9844C30.4705 38.725 37.9765 31.2189 47.2353 31.2189ZM39.1687 46.9066C38.5734 46.3115 37.6083 46.3115 37.0133 46.9066C36.418 47.5019 36.418 48.467 37.0133 49.062L43.1096 55.1586C43.7046 55.7539 44.6696 55.7539 45.2649 55.1586L57.4575 42.9654C58.0525 42.3704 58.0525 41.4053 57.4575 40.81C56.8622 40.215 55.8971 40.215 55.3022 40.81L44.1871 51.9256L39.1687 46.9066ZM30.5385 37.3133C29.6341 38.7256 28.9041 40.2601 28.3783 41.8866L6.85489 41.8876C5.59421 41.8876 4.5722 42.9096 4.5722 44.1704V45.9311C4.5722 47.5641 5.15473 49.1434 6.21506 50.3853C10.0353 54.8589 16.0276 57.1323 24.3742 57.1323C26.1924 57.1323 27.8988 57.0247 29.496 56.8095C30.2431 58.3181 31.1807 59.7161 32.2744 60.9747C29.8496 61.463 27.2133 61.7048 24.3742 61.7048C14.7853 61.7048 7.51241 58.9458 2.73808 53.3543C0.970893 51.2848 0 48.6526 0 45.9311V44.1704C0 40.3841 3.06905 37.3151 6.85489 37.3151L30.5385 37.3133ZM24.3742 0.75C32.7914 0.75 39.6149 7.57383 39.6149 15.9914C39.6149 24.4091 32.7914 31.2329 24.3742 31.2329C15.9571 31.2329 9.13362 24.4091 9.13362 15.9914C9.13362 7.57383 15.9571 0.75 24.3742 0.75ZM24.3742 5.32243C18.4823 5.32243 13.7058 10.0991 13.7058 15.9914C13.7058 21.8838 18.4823 26.6605 24.3742 26.6605C30.2663 26.6605 35.0427 21.8838 35.0427 15.9914C35.0427 10.0991 30.2663 5.32243 24.3742 5.32243Z" fill="white"/>
</g>
</g>
<defs>
<clipPath id="clip0_1401_1753">
<rect width="64" height="64" fill="white" transform="translate(0 0.75)"/>
</clipPath>
<clipPath id="clip1_1401_1753">
<rect width="64" height="64" fill="white" transform="translate(0 0.75)"/>
</clipPath>
</defs>
</svg>
