<svg width="60" height="55" viewBox="0 0 60 55" fill="none" xmlns="http://www.w3.org/2000/svg">
<path d="M41.2759 54.0686H6.87931C3.08586 54.0686 0 50.9827 0 47.1893V5.91342C0 5.37291 0.442241 4.93066 0.982759 4.93066H9.82759C10.3681 4.93066 10.8103 5.37291 10.8103 5.91342C10.8103 6.45394 10.3681 6.89618 9.82759 6.89618H1.96552V47.1893C1.96552 49.9017 4.1669 52.1031 6.87931 52.1031H41.2759C41.8164 52.1031 42.2586 52.5453 42.2586 53.0858C42.2586 53.6264 41.8164 54.0686 41.2759 54.0686Z" fill="white" stroke="white"/>
<path d="M57.9838 37.3617C57.4433 37.3617 57.0011 36.9195 57.0011 36.3789V6.89618H49.139C48.5985 6.89618 48.1562 6.45394 48.1562 5.91342C48.1562 5.37291 48.5985 4.93066 49.139 4.93066H57.9838C58.5244 4.93066 58.9666 5.37291 58.9666 5.91342V36.3789C58.9666 36.9195 58.5244 37.3617 57.9838 37.3617Z" fill="white" stroke="white"/>
<path d="M32.4297 4.93066H43.24V6.89618H32.4297V4.93066Z" fill="white" stroke="white"/>
<path d="M15.7246 4.93066H26.535V6.89618H15.7246V4.93066Z" fill="white" stroke="white"/>
<path d="M0.982422 12.793H57.9824V14.7585H0.982422V12.793Z" fill="white" stroke="white"/>
<path d="M29.4818 11.8103C27.3099 11.8103 25.5508 10.0512 25.5508 7.87931V4.93103C25.5508 2.75914 27.3099 1 29.4818 1C31.6537 1 33.4129 2.75914 33.4129 4.93103V7.87931C33.4129 10.0512 31.6537 11.8103 29.4818 11.8103ZM29.4818 2.96552C28.4008 2.96552 27.5163 3.85 27.5163 4.93103V7.87931C27.5163 8.96034 28.4008 9.84483 29.4818 9.84483C30.5629 9.84483 31.4473 8.96034 31.4473 7.87931V4.93103C31.4473 3.85 30.5629 2.96552 29.4818 2.96552Z" fill="white" stroke="white"/>
<path d="M12.7767 11.8103C10.6048 11.8103 8.8457 10.0512 8.8457 7.87931V4.93103C8.8457 2.75914 10.6048 1 12.7767 1C14.9486 1 16.7078 2.75914 16.7078 4.93103V7.87931C16.7078 10.0512 14.9486 11.8103 12.7767 11.8103ZM12.7767 2.96552C11.6957 2.96552 10.8112 3.85 10.8112 4.93103V7.87931C10.8112 8.96034 11.6957 9.84483 12.7767 9.84483C13.8578 9.84483 14.7423 8.96034 14.7423 7.87931V4.93103C14.7423 3.85 13.8578 2.96552 12.7767 2.96552Z" fill="white" stroke="white"/>
<path d="M46.1888 11.8103C44.017 11.8103 42.2578 10.0512 42.2578 7.87931V4.93103C42.2578 2.75914 44.017 1 46.1888 1C48.3607 1 50.1199 2.75914 50.1199 4.93103V7.87931C50.1199 10.0512 48.3607 11.8103 46.1888 11.8103ZM46.1888 2.96552C45.1078 2.96552 44.2233 3.85 44.2233 4.93103V7.87931C44.2233 8.96034 45.1078 9.84483 46.1888 9.84483C47.2699 9.84483 48.1544 8.96034 48.1544 7.87931V4.93103C48.1544 3.85 47.2699 2.96552 46.1888 2.96552Z" fill="white" stroke="white"/>
<path d="M20.6387 20.1729H26.5352C26.7994 20.1729 27.0184 20.391 27.0186 20.6553V26.5518C27.0186 26.8161 26.7995 27.0352 26.5352 27.0352H20.6387C20.3744 27.035 20.1562 26.816 20.1562 26.5518V20.6553C20.1564 20.3912 20.3746 20.173 20.6387 20.1729ZM21.1221 26.0693H26.0527V21.1387H21.1221V26.0693Z" fill="white" stroke="white"/>
<path d="M32.4316 20.1729H38.3281C38.5924 20.1729 38.8113 20.391 38.8115 20.6553V26.5518C38.8115 26.8161 38.5925 27.0352 38.3281 27.0352H32.4316C32.1674 27.035 31.9492 26.816 31.9492 26.5518V20.6553C31.9494 20.3912 32.1675 20.173 32.4316 20.1729ZM32.915 26.0693H37.8457V21.1387H32.915V26.0693Z" fill="white" stroke="white"/>
<path d="M44.2246 20.1729H50.1211C50.3854 20.1729 50.6043 20.391 50.6045 20.6553V26.5518C50.6045 26.8161 50.3855 27.0352 50.1211 27.0352H44.2246C43.9604 27.035 43.7422 26.816 43.7422 26.5518V20.6553C43.7424 20.3912 43.9605 20.173 44.2246 20.1729ZM44.708 26.0693H49.6387V21.1387H44.708V26.0693Z" fill="white" stroke="white"/>
<path d="M8.84375 30H14.7402C15.0045 30 15.2234 30.2182 15.2236 30.4824V36.3789C15.2236 36.6433 15.0046 36.8623 14.7402 36.8623H8.84375C8.57953 36.8621 8.36133 36.6432 8.36133 36.3789V30.4824C8.36151 30.2183 8.57964 30.0002 8.84375 30ZM9.32715 35.8965H14.2578V30.9658H9.32715V35.8965Z" fill="white" stroke="white"/>
<path d="M20.6367 30H26.5332C26.7975 30 27.0164 30.2182 27.0166 30.4824V36.3789C27.0166 36.6433 26.7976 36.8623 26.5332 36.8623H20.6367C20.3725 36.8621 20.1543 36.6432 20.1543 36.3789V30.4824C20.1545 30.2183 20.3726 30.0002 20.6367 30ZM21.1201 35.8965H26.0508V30.9658H21.1201V35.8965Z" fill="white" stroke="white"/>
<path d="M32.4316 30H38.3281C38.5924 30 38.8113 30.2182 38.8115 30.4824V36.3789C38.8115 36.6433 38.5925 36.8623 38.3281 36.8623H32.4316C32.1674 36.8621 31.9492 36.6432 31.9492 36.3789V30.4824C31.9494 30.2183 32.1675 30.0002 32.4316 30ZM32.915 35.8965H37.8457V30.9658H32.915V35.8965Z" fill="white" stroke="white"/>
<path d="M44.2246 30H50.1211C50.3854 30 50.6043 30.2182 50.6045 30.4824V36.3789C50.6045 36.6433 50.3855 36.8623 50.1211 36.8623H44.2246C43.9604 36.8621 43.7422 36.6432 43.7422 36.3789V30.4824C43.7424 30.2183 43.9605 30.0002 44.2246 30ZM44.708 35.8965H49.6387V30.9658H44.708V35.8965Z" fill="white" stroke="white"/>
<path d="M8.8457 39.8271H14.7422C15.0065 39.8271 15.2254 40.0453 15.2256 40.3096V46.2061C15.2256 46.4704 15.0066 46.6895 14.7422 46.6895H8.8457C8.58148 46.6893 8.36328 46.4703 8.36328 46.2061V40.3096C8.36347 40.0455 8.58159 39.8273 8.8457 39.8271ZM9.3291 45.7236H14.2598V40.793H9.3291V45.7236Z" fill="white" stroke="white"/>
<path d="M20.6387 39.8271H26.5352C26.7994 39.8271 27.0184 40.0453 27.0186 40.3096V46.2061C27.0186 46.4704 26.7995 46.6895 26.5352 46.6895H20.6387C20.3744 46.6893 20.1562 46.4703 20.1562 46.2061V40.3096C20.1564 40.0455 20.3746 39.8273 20.6387 39.8271ZM21.1221 45.7236H26.0527V40.793H21.1221V45.7236Z" fill="white" stroke="white"/>
<path d="M32.4316 39.8271H38.3281C38.5924 39.8271 38.8113 40.0453 38.8115 40.3096V46.2061C38.8115 46.4704 38.5925 46.6895 38.3281 46.6895H32.4316C32.1674 46.6893 31.9492 46.4703 31.9492 46.2061V40.3096C31.9494 40.0455 32.1675 39.8273 32.4316 39.8271ZM32.915 45.7236H37.8457V40.793H32.915V45.7236Z" fill="white" stroke="white"/>
</svg>
