<svg width="74" height="55" viewBox="0 0 74 55" fill="none" xmlns="http://www.w3.org/2000/svg">
<g clip-path="url(#clip0_1401_1788)">
<path d="M46.163 9.16031C46.163 5.45721 43.9325 2.11341 40.5068 0.695509C37.0849 -0.718592 33.1474 0.0626988 30.5263 2.68381C27.9052 5.30101 27.124 9.24241 28.5419 12.6643C29.956 16.0901 33.2997 18.3205 37.0028 18.3205C42.0575 18.3088 46.1512 14.215 46.163 9.16031ZM31.843 9.16031C31.843 7.07441 33.1008 5.19151 35.0266 4.39471C36.9563 3.59393 39.175 4.03533 40.6516 5.51191C42.1282 6.98851 42.5696 9.20721 41.7688 11.133C40.9719 13.0627 39.0891 14.3205 37.0032 14.3205C34.1594 14.3088 31.8548 12.0041 31.843 9.16031Z" fill="white"/>
<path d="M58.0802 24.8017C61.795 24.833 65.1583 22.622 66.5997 19.2001C68.045 15.7821 67.2793 11.829 64.6661 9.19212C62.0528 6.55542 58.1075 5.75852 54.6739 7.16872C51.2442 8.58282 49.002 11.9304 49.002 15.6414C49.002 20.6687 53.0529 24.7587 58.0802 24.8017ZM58.0802 10.4817C60.1779 10.4505 62.0802 11.6848 62.9044 13.6106C63.7286 15.5364 63.3067 17.7668 61.838 19.259C60.3692 20.7512 58.1427 21.2082 56.2052 20.4152C54.2677 19.6223 53.0021 17.7355 53.0021 15.6418C53.0138 12.8254 55.2677 10.5364 58.0802 10.4817Z" fill="white"/>
<path d="M25.0009 15.6406C25.0009 11.9336 22.7704 8.59366 19.3447 7.17576C15.9228 5.75776 11.9853 6.54295 9.36424 9.16406C6.74314 11.7813 5.96194 15.7227 7.37984 19.1446C8.79784 22.5665 12.1376 24.8008 15.8407 24.8008C20.8993 24.8008 25.0009 20.6992 25.0009 15.6406ZM10.6809 15.6406C10.6809 13.5547 11.9387 11.6718 13.8684 10.8711C15.7942 10.0742 18.0129 10.5156 19.4895 11.9922C20.9661 13.4688 21.4075 15.6875 20.6067 17.6133C19.8098 19.543 17.927 20.8008 15.8411 20.8008C13.0286 20.7461 10.7708 18.4531 10.763 15.6406H10.6809Z" fill="white"/>
<path d="M57.783 27.961C55.3963 28.0079 53.0525 28.6094 50.9432 29.7188C50.205 28.3594 49.2674 27.1211 48.162 26.0391C44.6386 22.5508 39.6776 20.9219 34.771 21.6485C29.8648 22.3711 25.5874 25.3633 23.22 29.7188C20.8723 28.5157 18.2591 27.9102 15.6223 27.961C11.3957 28.1172 7.39964 29.9141 4.48134 32.9766C1.56334 36.0352 -0.0420618 40.1133 0.000838151 44.3396V51.9998C0.000838151 53.1053 0.895368 53.9998 2.00084 53.9998C3.10631 53.9998 4.00084 53.1053 4.00084 51.9998V44.3396C3.90709 37.7263 9.09464 32.2416 15.6998 31.9606C17.7975 31.9098 19.8678 32.4215 21.6998 33.4411C21.3053 34.8786 21.1061 36.3669 21.1022 37.8591V48.6211C21.1022 51.5899 23.5084 54 26.4811 54C29.4538 54 31.86 51.5898 31.86 48.6211V43.8789C31.8444 39.5937 30.0905 35.4922 27.0006 32.5199L26.442 32.0004C28.1373 28.602 31.3678 26.2348 35.1178 25.6371C38.8678 25.0433 42.6764 26.2933 45.3408 29.0004C46.2783 29.9027 47.0556 30.9574 47.6416 32.1215C44.1455 35.2621 42.1533 39.7425 42.1611 44.4415V48.7227V48.7187C42.1611 51.6914 44.5713 54.1015 47.54 54.1015C50.5127 54.1015 52.9228 51.6913 52.9228 48.7187V37.3987C52.9345 36.051 52.7665 34.7034 52.4228 33.3987C54.083 32.4573 55.9501 31.9417 57.8603 31.8987C61.0634 31.848 64.1533 33.0823 66.4423 35.3206C68.7275 37.555 70.0126 40.6214 70.0009 43.8206V52.0003C70.0009 53.1058 70.8954 54.0004 72.0009 54.0004C73.1064 54.0004 74.0009 53.1058 74.0009 52.0003V43.8792C74.0009 39.598 72.2861 35.4964 69.2353 32.4882C66.1884 29.4804 62.0634 27.8202 57.7823 27.8788L57.783 27.961ZM27.783 43.961V48.6993C27.783 49.461 27.1658 50.0782 26.4002 50.0782C25.6385 50.0782 25.0213 49.461 25.0213 48.6993V37.8593V36.3593C26.8143 38.457 27.8143 41.121 27.8416 43.8788L27.783 43.961ZM49.002 48.6212C49.002 49.3829 48.3848 50.0001 47.6231 50.0001C46.8614 50.0001 46.2403 49.3829 46.2403 48.6212V44.34C46.2364 41.4962 47.1974 38.7306 48.963 36.5002V37.3986L49.002 48.6212Z" fill="white"/>
</g>
<defs>
<clipPath id="clip0_1401_1788">
<rect width="74" height="55" fill="white"/>
</clipPath>
</defs>
</svg>
