<svg width="64" height="64" viewBox="0 0 64 64" fill="none" xmlns="http://www.w3.org/2000/svg">
<rect width="64" height="64" rx="32" fill="#42C0C8"/>
<mask id="mask0_1401_2095" style="mask-type:luminance" maskUnits="userSpaceOnUse" x="16" y="17" width="30" height="30">
<path d="M16 17H46V47H16V17Z" fill="white"/>
</mask>
<g mask="url(#mask0_1401_2095)">
<path d="M40.0566 32.3971C38.363 33.8034 36.7657 34.6201 36.7657 34.6201C36.7657 34.6201 28.8516 30.5735 29.5784 24.9859C30.2174 20.0734 35.874 20.5587 36.7657 23.5512C37.6573 20.5587 43.3139 20.0734 43.9529 24.9859C44.2709 27.4305 42.935 29.5801 41.3314 31.225" stroke="white" stroke-width="2" stroke-miterlimit="10" stroke-linecap="round" stroke-linejoin="round"/>
<path d="M30.486 40.4426C30.114 40.7356 29.7845 41.0361 29.5152 41.341C27.2024 43.9605 25.3788 44.5686 23.155 44.6153L21.2869 47.001H16.9727V42.0895C16.9727 42.0895 19.4189 39.2361 19.9971 37.8328C20.2289 37.2702 20.8967 34.9262 21.6137 32.3192" stroke="white" stroke-width="2" stroke-miterlimit="10" stroke-linecap="round" stroke-linejoin="round"/>
<path d="M22.0645 30.6671C22.476 29.1533 22.8773 27.6574 23.1963 26.462C23.6355 24.8155 24.5283 23.3432 25.7624 22.2295L29.4615 18.8915C30.1419 18.2776 31.1629 18.3433 31.767 19.0398C32.3881 19.7559 32.335 20.867 31.649 21.5141L28.8565 24.148C27.8406 25.1062 27.1524 26.3893 26.8982 27.7993L25.9009 33.3326C25.6731 34.5964 26.31 35.8571 27.4332 36.366C28.0547 36.6476 28.7559 36.6644 29.3889 36.4128L34.1546 34.5194C35.5008 33.9846 37.0214 34.4141 37.9316 35.5863C38.2474 35.993 38.0863 36.6056 37.6166 36.7835C36.2881 37.2864 33.8418 38.2847 31.8546 39.502" stroke="white" stroke-width="2" stroke-miterlimit="10" stroke-linecap="round" stroke-linejoin="round"/>
<path d="M30.8337 22.2841L28.8575 24.148C27.8416 25.1063 27.1534 26.3894 26.8993 27.7995L25.9512 33.0596L28.1255 29.3429C28.5725 28.5786 29.119 27.8854 29.7477 27.2825C29.547 26.5543 29.4742 25.7874 29.5781 24.9891C29.7368 23.7687 30.2056 22.8824 30.8337 22.2841Z" stroke="white" stroke-width="2" stroke-miterlimit="10" stroke-linecap="round" stroke-linejoin="round"/>
<path d="M35.7363 22.081C36.2079 21.4165 36.1556 20.4699 35.5809 19.8687C34.9708 19.2306 34.0385 19.2385 33.4095 19.8558L30.8848 22.2354C32.2806 20.9563 34.4247 21.0605 35.7363 22.081Z" stroke="white" stroke-width="2" stroke-miterlimit="10" stroke-linecap="round" stroke-linejoin="round"/>
</g>
</svg>
