<svg width="64" height="64" viewBox="0 0 64 64" fill="none" xmlns="http://www.w3.org/2000/svg">
<rect width="64" height="64" rx="32" fill="#42C0C8"/>
<path d="M44.8641 28.6774C45.4111 28.1442 45.6043 27.3616 45.3682 26.635C45.1322 25.9085 44.5159 25.3889 43.7599 25.2791L37.1495 24.3186C37.0197 24.2997 36.9076 24.2183 36.8495 24.1006L33.8932 18.1106C33.5552 17.4256 32.8706 17 32.1067 17C31.3427 17 30.6581 17.4256 30.3201 18.1106L27.3638 24.1007C27.3057 24.2183 27.1936 24.2997 27.0638 24.3186L20.4535 25.2791C19.6975 25.3889 19.0813 25.9085 18.8451 26.635C18.609 27.3616 18.8022 28.1442 19.3493 28.6774L24.1326 33.34C24.2265 33.4316 24.2694 33.5634 24.2472 33.6927L23.118 40.2764C22.9889 41.0293 23.2925 41.7759 23.9106 42.225C24.5286 42.6741 25.3327 42.7321 26.0088 42.3767L31.9213 39.2684C32.0374 39.2073 32.176 39.2073 32.2922 39.2684L38.2047 42.3767C38.4988 42.5313 38.817 42.6077 39.1337 42.6077C39.5449 42.6077 39.9536 42.4788 40.3028 42.2249C40.9208 41.7758 41.2245 41.0292 41.0953 40.2763L39.9661 33.6927C39.944 33.5634 39.9868 33.4315 40.0807 33.3399L44.8641 28.6774ZM38.3953 33.9622L39.5245 40.546C39.5623 40.7663 39.4263 40.8919 39.366 40.9356C39.3057 40.9793 39.1442 41.07 38.9464 40.9659L33.0339 37.8575C32.7436 37.705 32.4252 37.6286 32.1068 37.6286C31.7883 37.6286 31.4699 37.705 31.1797 37.8575L25.2672 40.9658C25.0693 41.0698 24.9078 40.9792 24.8476 40.9355C24.7873 40.8918 24.6513 40.7662 24.6891 40.5458L25.8183 33.9622C25.9291 33.3158 25.715 32.6566 25.2453 32.1987L20.462 27.5362C20.3019 27.38 20.3381 27.1985 20.3612 27.1277C20.3841 27.0568 20.4616 26.8886 20.6828 26.8565L27.2931 25.8959C27.9421 25.8016 28.5029 25.3942 28.7932 24.806L31.7495 18.816C31.8484 18.6155 32.0323 18.5939 32.1068 18.5939C32.1812 18.5939 32.3651 18.6155 32.4641 18.816V18.816L35.4204 24.8061C35.7106 25.3943 36.2714 25.8017 36.9204 25.896L43.5308 26.8565C43.752 26.8886 43.8294 27.0569 43.8524 27.1277C43.8754 27.1986 43.9117 27.3802 43.7516 27.5362L38.9683 32.1988C38.4986 32.6566 38.2845 33.3158 38.3953 33.9622Z" fill="white" stroke="white"/>
<path d="M41.4161 18.1093C41.0599 17.8506 40.5616 17.9295 40.3029 18.2856L39.4569 19.4499C39.1983 19.8059 39.2772 20.3043 39.6333 20.563C39.7748 20.6658 39.9387 20.7153 40.1011 20.7153C40.3475 20.7153 40.5905 20.6013 40.7464 20.3868L41.5924 19.2225C41.851 18.8664 41.7722 18.3679 41.4161 18.1093Z" fill="white" stroke="white"/>
<path d="M24.7525 19.4459L23.9065 18.2816C23.6479 17.9257 23.1495 17.8467 22.7934 18.1053C22.4373 18.364 22.3584 18.8624 22.6171 19.2184L23.463 20.3827C23.619 20.5975 23.862 20.7113 24.1085 20.7113C24.271 20.7113 24.4349 20.6618 24.5763 20.559C24.9323 20.3004 25.0112 19.802 24.7525 19.4459Z" fill="white" stroke="white"/>
<path d="M19.9238 34.8809C19.7878 34.4624 19.3383 34.2333 18.9196 34.3693L17.5509 34.8141C17.1322 34.9501 16.9032 35.3998 17.0392 35.8183C17.1486 36.1552 17.4611 36.3692 17.797 36.3692C17.8786 36.3692 17.9616 36.3566 18.0434 36.3299L19.4122 35.8852C19.8308 35.7491 20.0599 35.2996 19.9238 34.8809Z" fill="white" stroke="white"/>
<path d="M32.1055 43.7285C31.6654 43.7285 31.3086 44.0853 31.3086 44.5254V45.9647C31.3086 46.4048 31.6654 46.7617 32.1055 46.7617C32.5457 46.7617 32.9025 46.4048 32.9025 45.9647V44.5254C32.9025 44.0853 32.5457 43.7285 32.1055 43.7285Z" fill="white" stroke="white"/>
<path d="M46.6603 34.814L45.2915 34.3693C44.873 34.2334 44.4233 34.4623 44.2873 34.881C44.1513 35.2996 44.3803 35.7492 44.7989 35.8852L46.1677 36.33C46.2495 36.3565 46.3325 36.3691 46.4141 36.3691C46.7501 36.3691 47.0625 36.155 47.1719 35.8182C47.3079 35.3996 47.0788 34.95 46.6603 34.814Z" fill="white" stroke="white"/>
</svg>
