<svg width="64" height="64" viewBox="0 0 64 64" fill="none" xmlns="http://www.w3.org/2000/svg">
<rect width="64" height="64" rx="32" fill="#42C0C8"/>
<path d="M46.1211 44.2281H44.719C44.5239 43.649 44.249 42.5983 44.249 41.2753C44.249 39.9513 44.5234 38.902 44.7189 38.3224H46.1211C46.6065 38.3224 47 37.9257 47 37.4365C47 36.9473 46.6065 36.5506 46.1211 36.5506H43.1822C43.3916 35.9674 43.5624 35.2246 43.5624 34.3504C43.5624 33.4762 43.3916 32.7334 43.1822 32.1501H44.3767C44.3973 32.1516 44.4179 32.1524 44.4386 32.1524C44.4518 32.1524 44.4651 32.1507 44.4784 32.1501H46.1203C46.6057 32.1501 46.9992 31.7535 46.9992 31.2643C46.9992 30.775 46.6057 30.3784 46.1203 30.3784H45.051C44.9502 30.022 44.8434 29.4941 44.8434 28.8584C44.8434 28.2226 44.9503 27.6948 45.051 27.3383H46.1203C46.6057 27.3383 46.9992 26.9417 46.9992 26.4525C46.9992 25.9632 46.6057 25.5666 46.1203 25.5666H43.98C44.2075 24.9427 44.3955 24.1416 44.3955 23.1956C44.3955 20.8457 43.2368 19.3879 43.1875 19.327C43.0205 19.1209 42.7706 19.0013 42.5066 19.0013H19.6661C19.6341 18.9997 19.6019 18.9994 19.5695 19.0013H17.8789C17.3935 19.0013 17 19.398 17 19.8872C17 20.3764 17.3935 20.7731 17.8789 20.7731H19.0204C19.1827 21.2765 19.3916 22.131 19.3916 23.1955C19.3916 24.2605 19.1824 25.1154 19.0205 25.618H17.8789C17.3935 25.618 17 26.0146 17 26.5039C17 26.9931 17.3935 27.3897 17.8789 27.3897H19.6197C19.6207 27.3897 19.6218 27.3899 19.6228 27.3899C19.6244 27.3899 19.6261 27.3897 19.6278 27.3897H21.5027C21.3839 27.8043 21.2989 28.2967 21.2989 28.8583C21.2989 29.4434 21.3913 29.9532 21.5179 30.3783H20.4386C20.406 30.3766 20.3733 30.3763 20.3405 30.3783H18.9122C18.4268 30.3783 18.0333 30.7749 18.0333 31.2641C18.0333 31.7534 18.4268 32.15 18.9122 32.15H19.7896C19.9374 32.6197 20.1198 33.3933 20.1198 34.3503C20.1198 35.3079 19.9371 36.0818 19.7898 36.5506H18.9122C18.4268 36.5506 18.0333 36.9472 18.0333 37.4364C18.0333 37.9257 18.4268 38.3223 18.9122 38.3223H20.3914C20.3924 38.3223 20.3935 38.3225 20.3945 38.3225C20.3961 38.3225 20.3977 38.3223 20.3994 38.3223H20.4605C20.1605 39.0625 19.8912 40.0636 19.8912 41.2752C19.8912 43.9518 21.2052 45.605 21.2611 45.6741C21.428 45.8802 21.678 45.9998 21.942 45.9998H44.1167C44.1183 45.9998 44.12 46 44.1216 46C44.1226 46 44.1237 45.9998 44.1247 45.9998H46.1211C46.6065 45.9998 47 45.6032 47 45.114C47 44.6248 46.6065 44.2281 46.1211 44.2281ZM20.8494 20.7731H42.0303C42.2721 21.2097 42.6376 22.0578 42.6376 23.1956C42.6376 24.2911 42.299 25.1169 42.058 25.5666L20.8494 25.618C21.0082 24.9913 21.1494 24.163 21.1494 23.1956C21.1494 22.2281 21.0083 21.3998 20.8494 20.7731ZM23.0567 28.8584C23.0567 28.209 23.2261 27.7069 23.3758 27.3898L43.24 27.3383C43.1524 27.7615 43.0856 28.2748 43.0856 28.8584C43.0856 29.442 43.1524 29.9552 43.24 30.3784L23.4005 30.3783C23.2455 30.0656 23.0567 29.5438 23.0567 28.8584ZM21.6143 32.1501H22.9112C22.9116 32.1501 22.9119 32.1502 22.9123 32.1502H41.2654C41.4872 32.5556 41.8046 33.3165 41.8046 34.3504C41.8046 35.3845 41.4872 36.1453 41.2654 36.5507H28.2945V35.624C28.2945 35.1347 27.901 34.7381 27.4156 34.7381H23.9C23.4146 34.7381 23.0211 35.1347 23.0211 35.624V36.5507H21.942H21.6143C21.7558 35.9712 21.8776 35.2205 21.8776 34.3504C21.8776 33.4803 21.7558 32.7297 21.6143 32.1501ZM24.7788 36.5098H26.5367V39.5352L26.1453 39.2722C25.9977 39.173 25.8277 39.1234 25.6578 39.1234C25.4878 39.1234 25.3179 39.173 25.1703 39.2722L24.7788 39.5352V36.5098ZM21.649 41.2753C21.649 39.8599 22.1251 38.8209 22.4128 38.3224H23.021V41.1904C23.021 41.5171 23.1995 41.8173 23.4852 41.9715C23.6152 42.0416 23.7577 42.0763 23.8999 42.0763C24.0704 42.0763 24.2404 42.0263 24.3874 41.9274L25.6578 41.0739L26.9281 41.9274C27.1978 42.1087 27.5445 42.1257 27.8303 41.9714C28.1161 41.8173 28.2945 41.5171 28.2945 41.1903V38.3223H41.7413H42.881C42.7149 38.933 42.5559 39.7379 42.5069 40.6846H38.8927C38.4073 40.6846 38.0138 41.0813 38.0138 41.5705C38.0138 42.0597 38.4073 42.4564 38.8927 42.4564H42.5527C42.6247 43.1498 42.7507 43.7488 42.881 44.2281H22.4117C22.1253 43.7326 21.649 42.6948 21.649 41.2753Z" fill="white"/>
</svg>
