<svg width="64" height="64" viewBox="0 0 64 64" fill="none" xmlns="http://www.w3.org/2000/svg">
<rect width="64" height="64" rx="32" fill="#42C0C8"/>
<g clip-path="url(#clip0_1401_2153)">
<path d="M32 17C23.75 17 17 23.75 17 32C17 40.25 23.75 47 32 47C40.25 47 47 40.25 47 32C47 23.75 40.25 17 32 17ZM32.625 45.75V44.625C32.625 44.25 32.375 44 32 44C31.625 44 31.375 44.25 31.375 44.625V45.75C24.3125 45.4375 18.5625 39.6875 18.25 32.625H19.375C19.75 32.625 20 32.375 20 32C20 31.625 19.75 31.375 19.375 31.375H18.25C18.5625 24.3125 24.3125 18.5625 31.375 18.25V19.375C31.375 19.75 31.625 20 32 20C32.375 20 32.625 19.75 32.625 19.375V18.25C39.6875 18.5625 45.4375 24.25 45.75 31.375H44.625C44.25 31.375 44 31.625 44 32C44 32.375 44.25 32.625 44.625 32.625H45.75C45.4375 39.6875 39.6875 45.4375 32.625 45.75Z" fill="white" stroke="white"/>
<path d="M32.3187 31.8171V22.6098C32.3187 22.2439 32.0549 22 31.6593 22C31.2637 22 31 22.2439 31 22.6098V32.061C31 32.2439 31.0659 32.3659 31.1978 32.4878L35.8791 36.8171C36.1429 37.061 36.5385 37.061 36.8022 36.8171C37.0659 36.5732 37.0659 36.2073 36.8022 35.9634L32.3187 31.8171Z" fill="white" stroke="white"/>
</g>
<defs>
<clipPath id="clip0_1401_2153">
<rect width="32" height="32" fill="white" transform="translate(16 16)"/>
</clipPath>
</defs>
</svg>
