<svg width="64" height="64" viewBox="0 0 64 64" fill="none" xmlns="http://www.w3.org/2000/svg">
<rect width="64" height="64" rx="32" fill="#42C0C8"/>
<mask id="mask0_1401_2164" style="mask-type:luminance" maskUnits="userSpaceOnUse" x="16" y="16" width="32" height="32">
<path d="M16 16H48V48H16V16Z" fill="white"/>
</mask>
<g mask="url(#mask0_1401_2164)">
<path d="M28.875 28.1875C28.875 29.9134 30.2741 31.3125 32 31.3125C33.7259 31.3125 35.125 29.9134 35.125 28.1875C35.125 26.4616 33.7259 25.0625 32 25.0625C30.2741 25.0625 28.875 26.4616 28.875 28.1875Z" stroke="white" stroke-width="2" stroke-miterlimit="10" stroke-linecap="round" stroke-linejoin="round"/>
<path d="M27 36.3125L22.4447 27.4866C21.8176 26.2715 21.8341 24.7723 22.6201 23.5071C22.9169 23.0293 23.3251 22.6304 23.7954 22.3218L32 16.9375M32 16.9375V19.1156M32 16.9375L40.2046 22.3218C40.6749 22.6304 41.0831 23.0293 41.3799 23.5071C42.1659 24.7723 42.1824 26.2715 41.5553 27.4866L37 36.3125M32 19.1156C32 20.575 31.2722 21.9384 30.0597 22.7506L25.912 25.5286C25.912 25.5286 29.1314 32.1285 29.1637 32.1947C29.9694 31.6382 30.9467 31.3125 32 31.3125C33.0533 31.3125 34.0306 31.6382 34.8362 32.1947C34.8686 32.1285 38.0881 25.5286 38.0881 25.5286L33.9403 22.7506C32.7277 21.9384 32 20.575 32 19.1156Z" stroke="white" stroke-width="2" stroke-miterlimit="10" stroke-linecap="round" stroke-linejoin="round"/>
<path d="M37 36.3123V41.229" stroke="white" stroke-width="2" stroke-miterlimit="10" stroke-linecap="round" stroke-linejoin="round"/>
<path d="M27 41.229V36.3123" stroke="white" stroke-width="2" stroke-miterlimit="10" stroke-linecap="round" stroke-linejoin="round"/>
<path d="M32 42.8958L37.0642 41.2078C37.8496 40.946 38.6721 40.8125 39.5 40.8125C41.2259 40.8125 42.625 42.2116 42.625 43.9375C42.625 45.6634 41.2259 47.0625 39.5 47.0625H33.3089" stroke="white" stroke-width="2" stroke-miterlimit="10" stroke-linecap="round" stroke-linejoin="round"/>
<path d="M24.5 40.8125C25.3279 40.8125 26.1504 40.946 26.9359 41.2078L33.8832 43.5236C34.6248 43.7708 35.125 44.4648 35.125 45.2464C35.125 46.2494 34.3119 47.0625 33.3089 47.0625H24.5C22.7741 47.0625 21.375 45.6634 21.375 43.9375C21.375 42.2116 22.7741 40.8125 24.5 40.8125Z" stroke="white" stroke-width="2" stroke-miterlimit="10" stroke-linecap="round" stroke-linejoin="round"/>
</g>
</svg>
