<svg width="64" height="64" viewBox="0 0 64 64" fill="none" xmlns="http://www.w3.org/2000/svg">
<rect width="64" height="64" rx="32" fill="#42C0C8"/>
<path d="M48 36.0108C48 33.2138 45.8014 31.0161 43.0033 31.0161C41.904 31.0161 40.8047 31.4157 40.0053 32.0151C37.8067 30.3169 34.7087 30.8163 33.0099 33.014C31.5108 35.0118 31.7107 37.7089 33.4096 39.507L39.5056 46H40.5049L46.9007 39.1074C47.6003 38.2084 48 37.1096 48 36.0108ZM45.4017 37.8088L40.0053 43.6026L34.9086 38.1085C33.7094 36.9098 33.7094 35.0118 34.9086 33.913C36.1078 32.8142 38.0066 32.7143 39.1059 33.913C39.2058 34.0129 39.2058 34.0129 39.2058 34.1128L40.0053 35.0118L40.8047 34.1128C41.4043 33.4136 42.2038 33.1139 43.0033 33.1139C44.7022 33.1139 46.0013 34.4125 46.0013 36.1106C46.0013 36.71 45.8014 37.3094 45.4017 37.8088Z" fill="white"/>
<path d="M23.3996 37.9648H29.9093V35.8681H23.3996C20.4407 35.8681 17.9749 33.2473 17.9749 30.1022C17.9749 26.9571 20.4407 24.3362 23.3996 24.3362H23.7942H24.5832L24.8791 23.6024C26.0627 20.1428 29.6134 18.2558 32.8683 19.5138C34.4464 20.1428 35.7286 21.296 36.419 22.8686L36.7149 23.6024L37.504 23.3927C37.7999 23.2879 38.0958 23.2879 38.3917 23.2879C40.9561 23.2879 43.0274 25.4894 43.0274 28.2152H45C45 24.3362 42.041 21.1912 38.3917 21.1912C38.1944 21.1912 37.9971 21.1912 37.7012 21.1912C35.3341 16.9978 30.3039 15.7397 26.3586 18.2558C24.9777 19.1993 23.8928 20.5622 23.2024 22.1347C19.0598 22.3444 15.9036 25.9088 16.0022 30.3119C16.1009 34.6101 19.4544 37.9648 23.3996 37.9648Z" fill="white"/>
</svg>
