<svg width="64" height="64" viewBox="0 0 64 64" fill="none" xmlns="http://www.w3.org/2000/svg">
<rect width="64" height="64" rx="32" fill="#42C0C8"/>
<g clip-path="url(#clip0_1401_2199)">
<path d="M32.7918 31.2087C32.5474 30.9643 32.1518 30.9643 31.9074 31.2087C31.6637 31.4524 31.6637 31.848 31.9074 32.0924C32.1518 32.3362 32.5474 32.3362 32.7918 32.0924C33.0355 31.848 33.0355 31.4524 32.7918 31.2087Z" fill="white" stroke="white" stroke-width="0.5"/>
<path d="M40.7472 23.2538C39.5259 22.0326 37.5489 22.0326 36.3276 23.2538C35.1095 24.4719 35.1095 26.4544 36.3278 27.6734C37.5463 28.8912 39.5288 28.8917 40.7472 27.6733C41.9683 26.4522 41.9685 24.4751 40.7472 23.2538ZM39.8633 26.7894C39.1325 27.5202 37.9429 27.5202 37.2117 26.7895C36.4807 26.0581 36.4807 24.8685 37.2115 24.1377C37.9442 23.405 39.1305 23.4049 39.8633 24.1377C40.596 24.8703 40.5961 26.0566 39.8633 26.7894Z" fill="white" stroke="white" stroke-width="0.5"/>
<path d="M47.8157 16.1831C47.6929 16.0604 47.5254 15.9939 47.3513 16.0004C47.21 16.0055 43.8453 16.1408 39.8457 17.5544C36.6407 18.6861 33.9692 20.3062 31.9055 22.37C31.4431 22.8324 30.9931 23.3228 30.5625 23.8322C28.5221 22.6311 26.8869 23.0077 25.8532 23.5609C23.4732 24.8347 22 28.2932 22 30.7669C22.0002 31.0197 22.1525 31.2476 22.386 31.3443C22.4633 31.3764 22.5446 31.3919 22.6251 31.3919C22.7877 31.3919 22.9476 31.3284 23.0671 31.2089C24.3223 29.9537 25.8705 30.0322 26.3762 30.0987L26.5951 30.3175C26.1644 31.3425 25.8174 32.3618 25.5629 33.3531C25.471 33.7118 25.502 34.0915 25.6386 34.4387C25.0368 34.716 24.4562 35.1232 23.9507 35.6287C22.3419 37.2376 22.0153 41.1585 22.0021 41.3246C21.9878 41.5069 22.0539 41.6864 22.1832 41.8157C22.3009 41.9333 22.4601 41.9988 22.6251 41.9988C22.6414 41.9988 22.6579 41.9981 22.6743 41.9968C22.8404 41.9838 26.7614 41.6571 28.3702 40.0483C28.8755 39.543 29.2827 38.9625 29.56 38.3608C29.9276 38.5054 30.306 38.5232 30.6462 38.436C31.6371 38.1816 32.6562 37.8347 33.6814 37.4039L33.9002 37.6228C33.9667 38.1286 34.0452 39.6768 32.79 40.9318C32.6114 41.1106 32.5579 41.3794 32.6546 41.6129C32.7513 41.8465 32.9792 41.9987 33.232 41.9987C35.7057 41.9987 39.1642 40.5255 40.4379 38.1455C40.9911 37.1119 41.3677 35.4768 40.1666 33.4362C40.6758 33.0058 41.1662 32.5558 41.6288 32.0932C43.6926 30.0295 45.3127 27.358 46.4443 24.1533C47.8581 20.1534 47.9933 16.7887 47.9983 16.6474C48.0046 16.474 47.9384 16.3058 47.8157 16.1831ZM23.3974 29.4226C23.7856 27.5437 24.9133 25.4819 26.4433 24.663C27.4657 24.1159 28.5833 24.1695 29.7715 24.8199C28.7592 26.1513 27.8792 27.5857 27.1456 29.1004C27.1363 29.0946 27.0238 28.9532 26.8148 28.906C26.7289 28.8866 25.0752 28.5309 23.3974 29.4226ZM27.4864 39.1643C26.627 40.0237 24.6111 40.477 23.3369 40.662C23.522 39.3878 23.9753 37.3719 24.8346 36.5126C25.3159 36.0313 25.8739 35.6665 26.4347 35.461L28.538 37.5642C28.3325 38.1251 27.9677 38.6831 27.4864 39.1643ZM30.3357 37.2252C30.1549 37.2715 29.9454 37.2035 29.7896 37.048C28.981 36.2394 28.6647 35.9231 28.5655 35.8239C28.3835 35.6419 27.9372 35.1956 26.9514 34.2097C26.7955 34.0535 26.7275 33.8441 26.7737 33.6635C26.9739 32.8839 27.2357 32.084 27.5541 31.2765L32.7225 36.4449C31.9148 36.7633 31.115 37.0251 30.3357 37.2252ZM39.336 37.5557C38.5171 39.0856 36.4553 40.2133 34.5765 40.6015C35.1755 39.4742 35.3076 38.0392 35.0887 37.169C35.0379 36.9668 34.906 36.8652 34.8987 36.8533C36.4132 36.1197 37.8475 35.2397 39.179 34.2273C39.8295 35.4157 39.883 36.5334 39.336 37.5557ZM40.7451 31.2094C40.1819 31.7725 39.5755 32.3165 38.9426 32.8263C37.4212 34.0513 35.7467 35.089 33.9602 35.915L28.084 30.0389C28.91 28.2522 29.9476 26.5777 31.1725 25.0566C31.6827 24.4232 32.2267 23.8167 32.7897 23.2539C34.6412 21.4022 37.0308 19.9286 39.8941 18.8679L45.1311 24.1049C44.0705 26.968 42.5968 29.3577 40.7451 31.2094ZM45.5808 22.7867L41.2123 18.4182C43.5923 17.6789 45.6629 17.4021 46.6964 17.3026C46.5968 18.3363 46.32 20.4069 45.5808 22.7867Z" fill="white" stroke="white" stroke-width="0.5"/>
<path d="M31.0238 41.8158C30.7797 41.5717 30.3839 41.5719 30.1399 41.8159L28.3724 43.584C28.1284 43.8282 28.1285 44.2239 28.3725 44.4679C28.6167 44.7119 29.0125 44.7119 29.2565 44.4678L31.024 42.6997C31.268 42.4555 31.2679 42.0598 31.0238 41.8158Z" fill="white" stroke="white" stroke-width="0.5"/>
<path d="M22.1847 32.9761C21.9407 32.732 21.5451 32.732 21.3009 32.976L19.5327 34.7434C19.2886 34.9874 19.2886 35.3832 19.5326 35.6273C19.7765 35.8713 20.1722 35.8716 20.4164 35.6274L22.1846 33.86C22.4287 33.616 22.4287 33.2202 22.1847 32.9761Z" fill="white" stroke="white" stroke-width="0.5"/>
<path d="M26.6035 42.7006C26.3595 42.4566 25.9637 42.4566 25.7196 42.7006L21.4858 46.9337C21.2417 47.1777 21.2417 47.5735 21.4858 47.8176C21.7297 48.0616 22.1255 48.0617 22.3696 47.8176L26.6034 43.5845C26.8475 43.3404 26.8475 42.9447 26.6035 42.7006Z" fill="white" stroke="white" stroke-width="0.5"/>
<path d="M21.6035 42.7006C21.3595 42.4566 20.9636 42.4566 20.7196 42.7006L16.4858 46.9337C16.2417 47.1777 16.2417 47.5735 16.4858 47.8176C16.7297 48.0616 17.1255 48.0617 17.3696 47.8176L21.6034 43.5845C21.8475 43.3404 21.8475 42.9447 21.6035 42.7006Z" fill="white" stroke="white" stroke-width="0.5"/>
<path d="M21.3 37.3959C21.056 37.1519 20.6602 37.1519 20.4162 37.3959L16.183 41.6297C15.939 41.8738 15.939 42.2695 16.1831 42.5136C16.4272 42.7577 16.8229 42.7577 17.067 42.5136L21.3001 38.2798C21.5442 38.0357 21.5442 37.64 21.3 37.3959Z" fill="white" stroke="white" stroke-width="0.5"/>
<path d="M35.4429 28.558C35.1988 28.314 34.8032 28.314 34.559 28.558L33.6752 29.4418C33.4312 29.6859 33.4312 30.0816 33.6752 30.3257C33.9194 30.5698 34.315 30.5698 34.5592 30.3257L35.4429 29.442C35.687 29.1979 35.687 28.8022 35.4429 28.558Z" fill="white" stroke="white" stroke-width="0.5"/>
</g>
<defs>
<clipPath id="clip0_1401_2199">
<rect width="32" height="32" fill="white" transform="translate(16 16)"/>
</clipPath>
</defs>
</svg>
