<svg width="64" height="64" viewBox="0 0 64 64" fill="none" xmlns="http://www.w3.org/2000/svg">
<rect width="64" height="64" rx="32" fill="#42C0C8"/>
<g clip-path="url(#clip0_1401_2234)">
<path d="M24.4686 24.0758C26.4133 24.0758 27.9899 22.4993 27.9899 20.5545C27.9899 18.6097 26.4133 17.0332 24.4686 17.0332C22.5238 17.0332 20.9473 18.6097 20.9473 20.5545C20.9473 22.4993 22.5238 24.0758 24.4686 24.0758Z" stroke="white" stroke-width="2" stroke-miterlimit="10"/>
<path d="M39.5311 24.0758C41.4758 24.0758 43.0524 22.4993 43.0524 20.5545C43.0524 18.6097 41.4758 17.0332 39.5311 17.0332C37.5863 17.0332 36.0098 18.6097 36.0098 20.5545C36.0098 22.4993 37.5863 24.0758 39.5311 24.0758Z" stroke="white" stroke-width="2" stroke-miterlimit="10"/>
<path d="M31.7056 29.5153C30.7967 26.3656 27.8873 24.0643 24.4421 24.0762C20.2798 24.0907 16.9375 27.5268 16.9375 31.6892C16.9375 33.6204 17.819 35.446 19.3314 36.6471L32 46.7076L44.6686 36.6471C46.181 35.4461 47.0625 33.6205 47.0625 31.6892C47.0625 27.5268 43.7202 24.0907 39.5579 24.0763C36.1128 24.0643 33.2034 26.3657 32.2944 29.5152" stroke="white" stroke-width="2" stroke-miterlimit="10"/>
<path d="M31.9987 34.7454C33.4477 34.7454 34.6224 33.5708 34.6224 32.1217C34.6224 30.6727 33.4477 29.498 31.9987 29.498C30.5497 29.498 29.375 30.6727 29.375 32.1217C29.375 33.5708 30.5497 34.7454 31.9987 34.7454Z" stroke="white" stroke-width="2" stroke-miterlimit="10"/>
<path d="M27.6328 43.141V39.1143C27.6328 36.7018 29.5885 34.7461 32.001 34.7461C34.4135 34.7461 36.3692 36.7018 36.3692 39.1143V43.141" stroke="white" stroke-width="2" stroke-miterlimit="10"/>
</g>
<defs>
<clipPath id="clip0_1401_2234">
<rect width="32" height="32" fill="white" transform="translate(16 16)"/>
</clipPath>
</defs>
</svg>
