<svg width="51" height="43" viewBox="0 0 51 43" fill="none" xmlns="http://www.w3.org/2000/svg">
<g clip-path="url(#clip0_1401_2254)">
<path d="M9.10174 21.9732C8.9913 21.5441 9.20132 21.093 9.58557 20.9397C10.1559 20.7131 11.3183 20.168 12.9082 19.0019M9.10174 21.9732L12.9082 19.0019L9.10174 21.9732ZM9.10174 21.9732C9.3942 23.0934 10.3665 26.0232 13.086 29.0588L9.10174 21.9732ZM12.9082 19.0019C12.9664 18.9592 13.0251 18.9156 13.0845 18.8713L12.934 18.7067C12.8747 18.751 12.8158 18.7944 12.7575 18.8369L12.9082 19.0019ZM10.393 31.9835L10.5401 31.821C10.9505 32.2658 12.9938 34.4484 15.5257 36.5182C16.7918 37.5532 18.1754 38.5562 19.5347 39.2996C20.8975 40.045 22.2173 40.519 23.3603 40.519C23.8447 40.519 24.2729 40.4267 24.6394 40.2521C26.8114 39.2129 28.5491 37.5832 29.2432 36.8753L22.4067 29.3959L29.3911 37.0372C28.692 37.7509 26.9311 39.4053 24.7231 40.4617C24.3264 40.6507 23.869 40.7477 23.3603 40.7477C18.5981 40.7477 11.2191 32.879 10.393 31.9835ZM10.393 31.9835C10.3884 31.9785 10.3837 31.9733 10.3774 31.9682L10.5259 31.8072C10.5233 31.8044 10.5208 31.8015 10.5182 31.7987M10.393 31.9835L10.5408 31.8217C10.5378 31.8184 10.5297 31.8095 10.5182 31.7987M10.5182 31.7987C8.71916 29.8121 6.41171 26.8906 4.74888 23.9849C3.91605 22.5296 3.25015 21.0872 2.88835 19.7743C2.52548 18.4576 2.47694 17.3023 2.83839 16.3973C3.79228 14.0081 5.32365 12.0659 5.92307 11.3581L10.5182 31.7987ZM22.2236 27.0153L22.217 27.0154L22.2104 27.0161C21.7349 27.0631 21.3072 27.3372 21.0371 27.7619C20.1438 29.1684 19.5656 30.3377 19.1941 31.2301C18.0507 30.7426 16.2254 29.7214 14.3338 27.695C12.4669 25.6103 11.5302 23.6088 11.0831 22.3544C11.9 21.9479 12.9683 21.3152 14.2507 20.3377C14.6439 20.0403 14.8928 19.5667 14.9325 19.0546C14.9752 18.5313 14.8055 18.0218 14.4671 17.6553C14.4669 17.6552 14.4672 17.6553 14.4671 17.6553L7.05144 9.53704C7.05142 9.53694 7.05148 9.53704 7.05144 9.53704C6.44557 8.87216 5.38944 8.879 4.79605 9.5224C4.79605 9.5224 4.7951 9.5234 4.79366 9.52505L4.7873 9.53191L4.76465 9.55652C4.74531 9.57775 4.71771 9.60821 4.68263 9.64765C4.61251 9.72642 4.51255 9.84096 4.3892 9.98817C4.14257 10.2826 3.8022 10.7078 3.41973 11.24C2.65559 12.303 1.71959 13.7977 1.02872 15.5297C0.427893 17.0332 0.550259 18.7894 1.07031 20.5795C1.59106 22.3722 2.51861 24.2276 3.56628 25.9532C5.66207 29.4051 8.26247 32.376 9.14012 33.3432C9.14856 33.3525 9.15759 33.3617 9.16294 33.3671C9.16921 33.3736 9.17239 33.3769 9.17481 33.3795L9.17557 33.3803C9.92259 34.1901 12.1305 36.5071 14.8112 38.6232C16.1516 39.6813 17.6146 40.6925 19.0757 41.4401C20.5346 42.1865 22.0057 42.6772 23.3587 42.6772C24.1076 42.6772 24.8055 42.5274 25.4276 42.229C28.3073 40.8517 30.4871 38.5755 30.9127 38.1149L30.9149 38.1124C31.5288 37.427 31.525 36.3201 30.9044 35.639L23.4894 27.5249C23.1874 27.1943 22.7983 26.9983 22.2236 27.0153ZM20.6802 32.9451C20.6801 32.9453 20.6802 32.945 20.6802 32.9451V32.9451Z" fill="white"/>
<path d="M9.10174 21.9732C8.9913 21.5441 9.20132 21.093 9.58557 20.9397C10.1559 20.7131 11.3183 20.168 12.9082 19.0019M9.10174 21.9732L12.9082 19.0019M9.10174 21.9732C9.3942 23.0934 10.3665 26.0232 13.086 29.0588L9.10174 21.9732ZM12.9082 19.0019C12.9664 18.9592 13.0251 18.9156 13.0845 18.8713L12.934 18.7067C12.8747 18.751 12.8158 18.7944 12.7575 18.8369L12.9082 19.0019ZM10.393 31.9835L10.5401 31.821C10.9505 32.2658 12.9938 34.4484 15.5257 36.5182C16.7918 37.5532 18.1754 38.5562 19.5347 39.2996C20.8975 40.045 22.2173 40.519 23.3603 40.519C23.8447 40.519 24.2729 40.4267 24.6394 40.2521C26.8114 39.2129 28.5491 37.5832 29.2432 36.8753L22.4067 29.3959L29.3911 37.0372C28.692 37.7509 26.9311 39.4053 24.7231 40.4617C24.3264 40.6506 23.869 40.7477 23.3603 40.7477C18.5981 40.7477 11.2191 32.879 10.393 31.9835ZM10.393 31.9835C10.3884 31.9785 10.3837 31.9733 10.3774 31.9682L10.5259 31.8072C10.5233 31.8044 10.5208 31.8015 10.5182 31.7987M10.393 31.9835L10.5408 31.8217C10.5378 31.8184 10.5297 31.8095 10.5182 31.7987M10.5182 31.7987C8.71916 29.8121 6.41171 26.8906 4.74888 23.9849C3.91605 22.5296 3.25015 21.0872 2.88835 19.7743C2.52548 18.4576 2.47694 17.3023 2.83839 16.3973C3.79228 14.0081 5.32365 12.0659 5.92307 11.3581L10.5182 31.7987ZM14.4671 17.6553C14.8055 18.0218 14.9752 18.5313 14.9325 19.0546C14.8928 19.5667 14.6439 20.0403 14.2507 20.3377C12.9683 21.3152 11.9 21.9479 11.0831 22.3544C11.5302 23.6088 12.4669 25.6103 14.3338 27.695C16.2254 29.7214 18.0507 30.7426 19.1941 31.2301C19.5656 30.3377 20.1438 29.1684 21.0371 27.7619C21.3072 27.3372 21.7349 27.0631 22.2104 27.0161L22.217 27.0154L22.2236 27.0153C22.7983 26.9983 23.1874 27.1943 23.4894 27.5249L30.9044 35.639C31.525 36.3201 31.5288 37.427 30.9149 38.1124L30.9127 38.1149C30.4871 38.5755 28.3073 40.8516 25.4276 42.229C24.8055 42.5274 24.1076 42.6772 23.3587 42.6772C22.0057 42.6772 20.5346 42.1865 19.0757 41.4401C17.6146 40.6925 16.1516 39.6813 14.8112 38.6232C12.1305 36.5071 9.92259 34.1901 9.17557 33.3803L9.17481 33.3795C9.17239 33.3769 9.16921 33.3736 9.16294 33.3671C9.15759 33.3617 9.14856 33.3525 9.14012 33.3432C8.26247 32.376 5.66207 29.4051 3.56628 25.9532C2.51861 24.2276 1.59106 22.3722 1.07031 20.5795C0.550259 18.7894 0.427893 17.0332 1.02872 15.5297C1.71959 13.7977 2.65559 12.303 3.41973 11.24C3.8022 10.7078 4.14257 10.2826 4.3892 9.98817C4.51255 9.84096 4.61251 9.72642 4.68263 9.64765C4.71771 9.60821 4.74531 9.57775 4.76465 9.55652L4.7873 9.53191L4.79366 9.52505C4.7951 9.5234 4.79605 9.5224 4.79605 9.5224C5.38944 8.879 6.44557 8.87216 7.05144 9.53704M14.4671 17.6553C14.4669 17.6552 14.4672 17.6553 14.4671 17.6553ZM14.4671 17.6553L7.05144 9.53704M7.05144 9.53704C7.05142 9.53694 7.05148 9.53704 7.05144 9.53704ZM20.4837 32.8671L20.6802 32.9451M20.6802 32.9451C20.6802 32.945 20.6801 32.9453 20.6802 32.9451Z" stroke="white" stroke-width="0.5"/>
<path d="M10.418 11.367V11.4618L10.4793 11.5287L12.035 13.2312L12.3918 13.6216V13.0695V9.44863L29.9121 19.9891C30.0586 20.0779 30.2226 20.1233 30.3867 20.1233C30.5511 20.1233 30.7147 20.0778 30.8619 19.9897L48.3848 9.44863V30.591C48.3848 31.7756 47.5045 32.7389 46.422 32.7389H30.3681H29.8634L30.2203 33.1294L31.7109 34.7604C31.7107 34.7603 31.7109 34.7605 31.7109 34.7604C31.7115 34.7614 31.7137 34.7644 31.7177 34.7703C31.7231 34.7785 31.7386 34.8025 31.7578 34.8252L31.8199 34.8989H31.9114H46.4251C48.5956 34.8989 50.3617 32.9663 50.3617 30.591V5.17693C50.3617 2.80344 48.5957 0.869141 46.4251 0.869141H14.3546C12.184 0.869141 10.418 2.80167 10.418 5.17693V11.367ZM48.3895 5.17693L48.3881 6.98578L30.3899 17.8119L12.3933 6.98585V5.17693C12.3933 3.99236 13.2737 3.02903 14.3562 3.02903H46.4266C47.5091 3.02903 48.3894 3.99245 48.3895 5.17693C48.3895 5.17699 48.3895 5.17686 48.3895 5.17693Z" fill="white"/>
<path d="M31.7109 34.7604L30.2203 33.1294L29.8634 32.7389H30.3681H46.422C47.5045 32.7389 48.3848 31.7756 48.3848 30.591V9.44863L30.8619 19.9897C30.7147 20.0778 30.5511 20.1233 30.3867 20.1233C30.2226 20.1233 30.0586 20.0779 29.9121 19.9891L12.3918 9.44863V13.0695V13.6216L12.035 13.2312L10.4793 11.5287L10.418 11.4618V11.367V5.17693C10.418 2.80167 12.184 0.869141 14.3546 0.869141H46.4251C48.5957 0.869141 50.3617 2.80344 50.3617 5.17693V30.591C50.3617 32.9663 48.5956 34.8989 46.4251 34.8989H31.9114H31.8199L31.7578 34.8252C31.7386 34.8025 31.7231 34.7785 31.7177 34.7703C31.7137 34.7644 31.7115 34.7614 31.7109 34.7604ZM31.7109 34.7604C31.7109 34.7605 31.7107 34.7603 31.7109 34.7604ZM48.3895 5.17693L48.3881 6.98578L30.3899 17.8119L12.3933 6.98585V5.17693C12.3933 3.99236 13.2737 3.02903 14.3562 3.02903H46.4266C47.5091 3.02903 48.3894 3.99245 48.3895 5.17693ZM48.3895 5.17693C48.3895 5.17699 48.3895 5.17686 48.3895 5.17693Z" stroke="white" stroke-width="0.5"/>
</g>
<defs>
<clipPath id="clip0_1401_2254">
<rect width="51" height="43" fill="white"/>
</clipPath>
</defs>
</svg>
