<svg width="56" height="44" viewBox="0 0 56 44" fill="none" xmlns="http://www.w3.org/2000/svg">
<path d="M55.1865 43.5048H51.3699C46.8704 43.5048 42.3848 42.473 38.3464 40.5149C36.0827 41.3083 33.7186 41.7085 31.3059 41.7085C19.7227 41.7085 10.3008 32.4511 10.3008 21.0738C10.3008 9.69661 19.7227 0.4375 31.3059 0.4375C42.8892 0.4375 52.3128 9.69661 52.3128 21.0738C52.3128 25.8736 50.6264 30.4794 47.5412 34.1656C48.1288 35.3235 48.8481 36.3825 49.687 37.3224L55.1865 43.5048ZM38.5509 36.7826L39.2598 37.1504C41.7626 38.4496 44.4768 39.3349 47.2639 39.7759L47.0784 39.5682C45.7681 38.1005 44.7004 36.4064 43.9031 34.5368L43.4733 33.5288L44.2255 32.7252C47.205 29.5395 48.8463 25.4003 48.8463 21.0738C48.8463 11.5729 40.9774 3.84283 31.3059 3.84283C21.6344 3.84283 13.7673 11.5729 13.7673 21.0738C13.7673 30.5747 21.6344 38.3031 31.3059 38.3031C33.5453 38.3031 35.7326 37.8894 37.8091 37.0738L38.5509 36.7826Z" fill="white"/>
<path d="M4.22005 43.5629H0.8125L4.69149 38.3323C5.29293 37.6512 5.77477 36.9634 6.16995 36.2397C3.95487 33.4882 2.74506 30.0931 2.74506 26.555C2.74506 20.7472 5.99316 15.4502 11.2241 12.731C11.7371 12.4671 12.2623 12.227 12.7996 12.0176L14.0718 15.1862C13.6489 15.3497 13.2398 15.5353 12.8412 15.7413C8.75421 17.8662 6.21155 22.0105 6.21155 26.555C6.21155 29.6249 7.37629 32.5603 9.49084 34.8197L10.2431 35.6234L9.81496 36.6296C9.33832 37.7483 8.73168 38.7869 8.00545 39.7234C9.51684 39.3709 11.023 38.7954 12.5916 37.9833L13.2988 37.6172L14.0423 37.9083C17.2662 39.1717 20.9198 39.0457 24.0137 37.5916L25.5095 40.665C21.7865 42.4102 17.4326 42.6605 13.512 41.3443C10.3887 42.8563 7.41788 43.5629 4.22005 43.5629Z" fill="white"/>
<path d="M22.3848 16.2617H39.7172V19.6671H22.3848V16.2617Z" fill="white"/>
<path d="M22.3848 23.0723H32.7842V26.4776H22.3848V23.0723Z" fill="white"/>
</svg>
