<svg width="51" height="48" viewBox="0 0 51 48" fill="none" xmlns="http://www.w3.org/2000/svg">
<path d="M28.2416 29.3359H7.84142C7.13723 29.3359 6.56641 29.9068 6.56641 30.6109C6.56641 31.3151 7.13723 31.886 7.84142 31.886H28.2416C28.9458 31.886 29.5166 31.3151 29.5166 30.6109C29.5166 29.9068 28.9458 29.3359 28.2416 29.3359Z" fill="white"/>
<path d="M7.84142 24.2375H18.679C19.3832 24.2375 19.954 23.6667 19.954 22.9625C19.954 22.2583 19.3832 21.6875 18.679 21.6875H7.84142C7.13723 21.6875 6.56641 22.2583 6.56641 22.9625C6.56641 23.6667 7.13723 24.2375 7.84142 24.2375Z" fill="white"/>
<path d="M28.2416 36.9863H7.84142C7.13723 36.9863 6.56641 37.5571 6.56641 38.2613C6.56641 38.9655 7.13723 39.5364 7.84142 39.5364H28.2416C28.9458 39.5364 29.5166 38.9655 29.5166 38.2613C29.5166 37.5571 28.9458 36.9863 28.2416 36.9863Z" fill="white"/>
<path d="M36.0191 13.846L22.3765 0.968478C22.165 0.731876 21.865 0.593381 21.5477 0.585938H5.29126C2.43166 0.618151 0.102011 2.89167 0 5.74968V42.7249C0.103597 45.562 2.45265 47.7978 5.29126 47.7612H31.429C34.1401 47.7621 36.3385 45.5651 36.3394 42.854C36.3394 42.811 36.3389 42.7679 36.3377 42.7249V14.8023C36.3601 14.4542 36.2458 14.111 36.0191 13.846ZM22.3127 4.60218L32.5765 13.9735H23.7789C23.0492 14.0134 22.4111 13.4864 22.3127 12.7622V4.60218ZM31.56 45.2078C31.5164 45.2102 31.4728 45.2114 31.4291 45.2113H5.29126C3.85969 45.249 2.65179 44.1534 2.55003 42.725V5.74968C2.64874 4.29994 3.83846 3.16561 5.29126 3.13596H19.7626V12.7623C19.8656 14.8951 21.644 16.5605 23.7789 16.5235H33.7877V42.725C33.8582 44.0258 32.8608 45.1374 31.56 45.2078Z" fill="white"/>
<path d="M49.9797 5.11207V4.02827C49.9575 3.10224 49.5942 2.21685 48.9597 1.54206C48.2425 0.893878 47.3127 0.530983 46.346 0.522075C44.3746 0.486567 42.7478 2.0559 42.7123 4.02717C42.7123 4.02754 42.7123 4.0279 42.7123 4.02827V5.04825H40.0348C39.7175 5.0557 39.4175 5.19419 39.206 5.43079C38.9701 5.63799 38.851 5.94768 38.8873 6.25957V19.7747C38.8873 20.4788 39.4581 21.0497 40.1623 21.0497C40.8665 21.0497 41.4373 20.4788 41.4373 19.7747V7.59828H42.0747V40.0473C42.0747 40.2386 42.011 40.4299 42.1384 40.6211L45.2622 47.1237C45.4679 47.5678 45.9206 47.8445 46.4097 47.8249C46.8806 47.8358 47.3104 47.5577 47.4935 47.1237L50.8085 40.6211C50.9004 40.4404 50.9648 40.247 50.9997 40.0473V6.32327C50.9605 5.74024 50.5476 5.24984 49.9797 5.11207ZM45.2622 4.02827C45.2959 3.49003 45.7429 3.071 46.2822 3.07198C46.542 3.0505 46.7981 3.14361 46.9835 3.32701C47.1772 3.51016 47.2917 3.76177 47.3022 4.02827V5.04825H45.2622V4.02827ZM46.3459 43.7449L45.2621 41.3861H47.4934L46.3459 43.7449ZM48.4497 38.836H44.6246V23.536H48.4497V38.836ZM48.4497 20.986H44.6246V20.3485H48.4497V20.986ZM48.4497 17.7984H44.6246V7.59828H48.4497V17.7984Z" fill="white"/>
</svg>
