<svg width="60" height="60" viewBox="0 0 60 60" fill="none" xmlns="http://www.w3.org/2000/svg">
<path d="M9.55693 40.9656C8.53182 41.3956 7.35768 40.9021 6.93336 39.8666C5.6506 36.7357 5 33.4162 5 30C5 15.7412 16.41 4.20987 30.5 4.20987C36.5001 4.20987 42.5018 6.33118 47.3465 10.6464V6.03125C47.3465 4.9093 48.2458 4 49.3544 4C50.4634 4 51.3623 4.9093 51.3623 6.03125V15.7206C51.4227 16.8806 50.4948 17.8625 49.3544 17.8625H39.6645C38.5554 17.8625 37.6566 16.9532 37.6566 15.8312C37.6566 14.7093 38.5554 13.8 39.6645 13.8H44.8132C41.0033 10.3568 36.0185 8.27237 30.5 8.27237C18.6245 8.27237 9.01575 17.9918 9.01575 30C9.01575 32.8795 9.56321 35.676 10.6432 38.3111C11.0675 39.3477 10.5817 40.5359 9.55693 40.9656ZM54.0666 20.1334C53.6419 19.0967 52.4674 18.6052 51.4431 19.0344C50.4183 19.4641 49.9325 20.6527 50.3568 21.6889C51.4368 24.324 51.9842 27.1205 51.9842 30C51.9842 42.0082 42.3755 51.7276 30.5 51.7276C24.9815 51.7276 19.9967 49.6432 16.1868 46.2H21.3355C22.4446 46.2 23.3434 45.2903 23.3434 44.1688C23.3434 43.0468 22.4446 42.1375 21.3355 42.1375H11.6456C10.5075 42.1375 9.57693 43.1103 9.63772 44.2794V53.9688C9.63772 55.0907 10.5366 56 11.6456 56C12.7542 56 13.6535 55.0907 13.6535 53.9688V49.3536C18.4982 53.6688 24.4999 55.7901 30.5 55.7901C44.59 55.7901 56 44.2588 56 30C56 26.5838 55.3494 23.2643 54.0666 20.1334Z" fill="white"/>
</svg>
