<svg width="53" height="54" viewBox="0 0 53 54" fill="none" xmlns="http://www.w3.org/2000/svg">
<mask id="mask0_1289_1696" style="mask-type:luminance" maskUnits="userSpaceOnUse" x="0" y="0" width="53" height="54">
<path d="M0 0H53V54H0V0Z" fill="white"/>
</mask>
<g mask="url(#mask0_1289_1696)">
<path d="M26.5 7.91016C26.5 7.91016 20.6138 14.2383 17.1836 14.2383C13.7534 14.2383 10.9727 11.4051 10.9727 7.91016C10.9727 4.41524 13.7534 1.58203 17.1836 1.58203C20.6138 1.58203 26.5 7.91016 26.5 7.91016Z" stroke="white" stroke-width="3" stroke-miterlimit="10"/>
<path d="M26.5 7.91016C26.5 7.91016 32.3862 14.2383 35.8164 14.2383C39.2466 14.2383 42.0273 11.4051 42.0273 7.91016C42.0273 4.41524 39.2466 1.58203 35.8164 1.58203C32.3862 1.58203 26.5 7.91016 26.5 7.91016Z" stroke="white" stroke-width="3" stroke-miterlimit="10"/>
<path d="M16.5473 42.172L7.76367 33.2227M7.76367 33.2227V20.5664C7.76367 18.819 6.37335 17.4023 4.6582 17.4023H1.55273V36.3867L10.8691 45.8789V52.418H23.291C23.291 52.418 23.291 41.5423 23.2911 40.0938L12.1555 28.748L7.76367 33.2227Z" stroke="white" stroke-width="3" stroke-miterlimit="10"/>
<path d="M36.4528 42.172L45.2364 33.2227M45.2364 33.2227V20.5664C45.2364 18.819 46.6268 17.4023 48.3419 17.4023H51.4474V36.3867L42.131 45.8789V52.418H29.7091C29.7091 52.418 29.7091 41.5423 29.709 40.0938L40.8447 28.748L45.2364 33.2227Z" stroke="white" stroke-width="3" stroke-miterlimit="10"/>
</g>
</svg>
