<svg width="106" height="106" viewBox="0 0 106 106" fill="none" xmlns="http://www.w3.org/2000/svg">
<g clip-path="url(#clip0_1403_8636)">
<path d="M53.2173 105.671C82.2039 105.671 105.702 82.1727 105.702 53.1861C105.702 24.1995 82.2039 0.701172 53.2173 0.701172C24.2307 0.701172 0.732422 24.1995 0.732422 53.1861C0.732422 82.1727 24.2307 105.671 53.2173 105.671Z" fill="white" fill-opacity="0.5"/>
<path d="M53.2166 94.3472C75.9497 94.3472 94.3785 75.9184 94.3785 53.1853C94.3785 30.4522 75.9497 12.0234 53.2166 12.0234C30.4835 12.0234 12.0547 30.4522 12.0547 53.1853C12.0547 75.9184 30.4835 94.3472 53.2166 94.3472Z" fill="#14317F"/>
<path d="M67.8953 51.4805L47.3492 39.2517C47.0983 39.1041 46.84 39.0156 46.5448 39.0156C45.7404 39.0156 45.0835 39.6798 45.0835 40.4916H45.0762V65.879H45.0835C45.0835 66.6908 45.7404 67.355 46.5448 67.355C46.8474 67.355 47.0983 67.2517 47.3714 67.1041L67.8953 54.8901C68.3824 54.4842 68.6924 53.8716 68.6924 53.1853C68.6924 52.4989 68.3824 51.8938 67.8953 51.4805Z" fill="white"/>
</g>
<defs>
<clipPath id="clip0_1403_8636">
<rect width="106" height="106" fill="white"/>
</clipPath>
</defs>
</svg>
